@startuml

title __MODEL's Class Diagram__\n

  namespace com.hyphenate.easeui {
    namespace modules {
      namespace conversation {
        namespace model {
          class com.hyphenate.easeui.modules.conversation.model.EaseConversationInfo {
              - info : Object
              - isGroup : boolean
              - isSelected : boolean
              - isTop : boolean
              - timestamp : long
              + compareTo()
              + getInfo()
              + getTimestamp()
              + isGroup()
              + isSelected()
              + isTop()
              + setGroup()
              + setInfo()
              + setOnSelectListener()
              + setSelected()
              + setTimestamp()
              + setTop()
          }
        }
      }
    }
  }
  

  namespace com.hyphenate.easeui {
    namespace modules {
      namespace conversation {
        namespace model {
          interface com.hyphenate.easeui.modules.conversation.model.EaseConversationInfo.OnSelectListener {
              {abstract} + onSelect()
          }
        }
      }
    }
  }
  

  namespace com.hyphenate.easeui {
    namespace modules {
      namespace conversation {
        namespace model {
          class com.hyphenate.easeui.modules.conversation.model.EaseConversationSetStyle {
              - contentTextColor : int
              - contentTextSize : float
              - dateTextColor : int
              - dateTextSize : float
              - hideUnreadDot : boolean
              - mentionTextColor : int
              - mentionTextSize : float
              - showSystemMessage : boolean
              - titleTextColor : int
              - titleTextSize : float
              + getContentTextColor()
              + getContentTextSize()
              + getDateTextColor()
              + getDateTextSize()
              + getMentionTextColor()
              + getMentionTextSize()
              + getTitleTextColor()
              + getTitleTextSize()
              + getUnreadDotPosition()
              + isHideUnreadDot()
              + isShowSystemMessage()
              + setContentTextColor()
              + setContentTextSize()
              + setDateTextColor()
              + setDateTextSize()
              + setHideUnreadDot()
              + setMentionTextColor()
              + setMentionTextSize()
              + setShowSystemMessage()
              + setTitleTextColor()
              + setTitleTextSize()
              + setUnreadDotPosition()
          }
        }
      }
    }
  }
  

  namespace com.hyphenate.easeui {
    namespace modules {
      namespace conversation {
        namespace model {
          enum UnreadDotPosition {
            LEFT
            RIGHT
          }
        }
      }
    }
  }
  

  com.hyphenate.easeui.modules.conversation.model.EaseConversationInfo .up.|> Comparable
  com.hyphenate.easeui.modules.conversation.model.EaseConversationInfo .up.|> Serializable
  com.hyphenate.easeui.modules.conversation.model.EaseConversationInfo o-- com.hyphenate.easeui.modules.conversation.model.EaseConversationInfo.OnSelectListener : listener
  com.hyphenate.easeui.modules.conversation.model.EaseConversationInfo +-down- com.hyphenate.easeui.modules.conversation.model.EaseConversationInfo.OnSelectListener
  com.hyphenate.easeui.modules.conversation.model.EaseConversationSetStyle o-- com.hyphenate.easeui.modules.conversation.model.EaseConversationSetStyle.UnreadDotPosition : unreadDotPosition
  com.hyphenate.easeui.modules.conversation.model.EaseConversationSetStyle +-down- com.hyphenate.easeui.modules.conversation.model.EaseConversationSetStyle.UnreadDotPosition


right footer


PlantUML diagram generated by SketchIt! (https://bitbucket.org/pmesmeur/sketch.it)
For more information about this tool, please contact philippe.mesmeur@gmail.com
endfooter

@enduml
